<mxfile host="app.diagrams.net" agent="Mozilla/5.0 (Windows NT 10.0; Win64; x64) AppleWebKit/537.36 (KHTML, like Gecko) Chrome/132.0.0.0 Safari/537.36 OPR/117.0.0.0" version="26.1.1">
  <diagram name="Página-1" id="YlGzqLBO0HIntggeVLGk">
    <mxGraphModel dx="1920" dy="978" grid="1" gridSize="10" guides="1" tooltips="1" connect="1" arrows="1" fold="1" page="1" pageScale="1" pageWidth="827" pageHeight="1169" math="0" shadow="0">
      <root>
        <mxCell id="0" />
        <mxCell id="1" parent="0" />
        <mxCell id="qiPV36OZNPUoFdpI1-xv-21" value="" style="rounded=0;whiteSpace=wrap;html=1;" parent="1" vertex="1">
          <mxGeometry x="154" y="80" width="520" height="650" as="geometry" />
        </mxCell>
        <mxCell id="qiPV36OZNPUoFdpI1-xv-22" value="Sistema de Sugestoes e Feedback" style="text;html=1;align=center;verticalAlign=middle;whiteSpace=wrap;rounded=0;" parent="1" vertex="1">
          <mxGeometry x="240" y="90" width="360" height="30" as="geometry" />
        </mxCell>
        <mxCell id="qiPV36OZNPUoFdpI1-xv-99" style="edgeStyle=orthogonalEdgeStyle;rounded=0;orthogonalLoop=1;jettySize=auto;html=1;entryX=0;entryY=0.5;entryDx=0;entryDy=0;" parent="1" source="qiPV36OZNPUoFdpI1-xv-23" target="qiPV36OZNPUoFdpI1-xv-75" edge="1">
          <mxGeometry relative="1" as="geometry">
            <Array as="points">
              <mxPoint x="210" y="475" />
              <mxPoint x="210" y="182" />
            </Array>
          </mxGeometry>
        </mxCell>
        <mxCell id="Ioj9c9lP5CWRtf3yzLBy-4" style="edgeStyle=orthogonalEdgeStyle;rounded=0;orthogonalLoop=1;jettySize=auto;html=1;entryX=0;entryY=0.5;entryDx=0;entryDy=0;" edge="1" parent="1" source="qiPV36OZNPUoFdpI1-xv-23" target="qiPV36OZNPUoFdpI1-xv-31">
          <mxGeometry relative="1" as="geometry" />
        </mxCell>
        <mxCell id="Ioj9c9lP5CWRtf3yzLBy-6" style="edgeStyle=orthogonalEdgeStyle;rounded=0;orthogonalLoop=1;jettySize=auto;html=1;" edge="1" parent="1" source="qiPV36OZNPUoFdpI1-xv-23" target="qiPV36OZNPUoFdpI1-xv-32">
          <mxGeometry relative="1" as="geometry">
            <Array as="points">
              <mxPoint x="210" y="475" />
              <mxPoint x="210" y="385" />
            </Array>
          </mxGeometry>
        </mxCell>
        <mxCell id="qiPV36OZNPUoFdpI1-xv-23" value="Morador" style="shape=umlActor;verticalLabelPosition=bottom;verticalAlign=top;html=1;" parent="1" vertex="1">
          <mxGeometry x="10" y="410" width="60" height="130" as="geometry" />
        </mxCell>
        <mxCell id="qiPV36OZNPUoFdpI1-xv-103" style="edgeStyle=orthogonalEdgeStyle;rounded=0;orthogonalLoop=1;jettySize=auto;html=1;" parent="1" source="qiPV36OZNPUoFdpI1-xv-24" target="qiPV36OZNPUoFdpI1-xv-75" edge="1">
          <mxGeometry relative="1" as="geometry">
            <Array as="points">
              <mxPoint x="770" y="260" />
              <mxPoint x="460" y="260" />
            </Array>
          </mxGeometry>
        </mxCell>
        <mxCell id="qiPV36OZNPUoFdpI1-xv-106" style="edgeStyle=orthogonalEdgeStyle;rounded=0;orthogonalLoop=1;jettySize=auto;html=1;" parent="1" source="qiPV36OZNPUoFdpI1-xv-24" target="qiPV36OZNPUoFdpI1-xv-35" edge="1">
          <mxGeometry relative="1" as="geometry" />
        </mxCell>
        <mxCell id="RbaIrS-22OcQguG2Y-is-7" style="edgeStyle=orthogonalEdgeStyle;rounded=0;orthogonalLoop=1;jettySize=auto;html=1;entryX=1;entryY=0.5;entryDx=0;entryDy=0;" parent="1" source="qiPV36OZNPUoFdpI1-xv-24" target="RbaIrS-22OcQguG2Y-is-6" edge="1">
          <mxGeometry relative="1" as="geometry" />
        </mxCell>
        <mxCell id="Ioj9c9lP5CWRtf3yzLBy-7" style="edgeStyle=orthogonalEdgeStyle;rounded=0;orthogonalLoop=1;jettySize=auto;html=1;entryX=1;entryY=0.5;entryDx=0;entryDy=0;" edge="1" parent="1" source="qiPV36OZNPUoFdpI1-xv-24" target="qiPV36OZNPUoFdpI1-xv-34">
          <mxGeometry relative="1" as="geometry" />
        </mxCell>
        <mxCell id="qiPV36OZNPUoFdpI1-xv-24" value="Administrador" style="shape=umlActor;verticalLabelPosition=bottom;verticalAlign=top;html=1;" parent="1" vertex="1">
          <mxGeometry x="740" y="390" width="60" height="130" as="geometry" />
        </mxCell>
        <mxCell id="qiPV36OZNPUoFdpI1-xv-31" value="Acessa formulário de feedback" style="ellipse;whiteSpace=wrap;html=1;" parent="1" vertex="1">
          <mxGeometry x="350" y="270" width="140" height="70" as="geometry" />
        </mxCell>
        <mxCell id="qiPV36OZNPUoFdpI1-xv-32" value="Envia sugestão ou reclamação" style="ellipse;whiteSpace=wrap;html=1;" parent="1" vertex="1">
          <mxGeometry x="352" y="350" width="136" height="70" as="geometry" />
        </mxCell>
        <mxCell id="qiPV36OZNPUoFdpI1-xv-34" value="Responde o morador" style="ellipse;whiteSpace=wrap;html=1;" parent="1" vertex="1">
          <mxGeometry x="350" y="530" width="140" height="70" as="geometry" />
        </mxCell>
        <mxCell id="qiPV36OZNPUoFdpI1-xv-35" value="Analisa o feedback" style="ellipse;whiteSpace=wrap;html=1;" parent="1" vertex="1">
          <mxGeometry x="350" y="440" width="140" height="70" as="geometry" />
        </mxCell>
        <mxCell id="qiPV36OZNPUoFdpI1-xv-75" value="Faz Login" style="ellipse;whiteSpace=wrap;html=1;" parent="1" vertex="1">
          <mxGeometry x="350" y="150" width="140" height="65" as="geometry" />
        </mxCell>
        <mxCell id="qiPV36OZNPUoFdpI1-xv-95" value="Verificar senha" style="ellipse;whiteSpace=wrap;html=1;" parent="1" vertex="1">
          <mxGeometry x="580" y="140" width="80" height="40" as="geometry" />
        </mxCell>
        <mxCell id="qiPV36OZNPUoFdpI1-xv-96" value="Exibe erro de login" style="ellipse;whiteSpace=wrap;html=1;" parent="1" vertex="1">
          <mxGeometry x="580" y="215" width="80" height="40" as="geometry" />
        </mxCell>
        <mxCell id="qiPV36OZNPUoFdpI1-xv-97" value="&lt;font style=&quot;font-size: 9px;&quot;&gt;&amp;lt;&amp;lt;Include&amp;gt;&amp;gt;&lt;/font&gt;" style="endArrow=block;endSize=16;endFill=0;html=1;rounded=0;exitX=1;exitY=0.5;exitDx=0;exitDy=0;entryX=0;entryY=0.5;entryDx=0;entryDy=0;" parent="1" source="qiPV36OZNPUoFdpI1-xv-75" target="qiPV36OZNPUoFdpI1-xv-95" edge="1">
          <mxGeometry width="160" relative="1" as="geometry">
            <mxPoint x="500" y="178.82" as="sourcePoint" />
            <mxPoint x="660" y="178.82" as="targetPoint" />
          </mxGeometry>
        </mxCell>
        <mxCell id="qiPV36OZNPUoFdpI1-xv-98" value="&lt;font style=&quot;font-size: 9px;&quot;&gt;&amp;lt;&amp;lt;Extends&amp;gt;&amp;gt;&lt;/font&gt;" style="endArrow=block;endSize=16;endFill=0;html=1;rounded=0;entryX=0.971;entryY=0.71;entryDx=0;entryDy=0;entryPerimeter=0;exitX=0;exitY=0.5;exitDx=0;exitDy=0;" parent="1" source="qiPV36OZNPUoFdpI1-xv-96" target="qiPV36OZNPUoFdpI1-xv-75" edge="1">
          <mxGeometry width="160" relative="1" as="geometry">
            <mxPoint x="510" y="294.40999999999997" as="sourcePoint" />
            <mxPoint x="670" y="294.40999999999997" as="targetPoint" />
          </mxGeometry>
        </mxCell>
        <mxCell id="RbaIrS-22OcQguG2Y-is-6" value="Registra Feedback" style="ellipse;whiteSpace=wrap;html=1;" parent="1" vertex="1">
          <mxGeometry x="350" y="620" width="140" height="70" as="geometry" />
        </mxCell>
      </root>
    </mxGraphModel>
  </diagram>
</mxfile>
